<svg width="496" height="261" viewBox="0 0 496 261" fill="none" xmlns="http://www.w3.org/2000/svg">
<path d="M496 0H0V261H496V0Z" fill="#6253F1"/>
<path d="M436.766 169.504V167.523H440.02V161.639H442.69L442.945 167.522H450.221L443.493 154.436L446.016 153.534L453.44 167.702V169.503H442.982V174.545H440.02V169.503H436.766V169.504ZM424.312 153.536C426.872 153.536 429.321 154.256 431.442 155.937L429.797 157.468C428.115 156.177 426.615 155.547 424.458 155.547C421.789 155.547 419.668 156.777 419.668 159.058C419.668 161.55 422.045 162.691 424.458 162.691H425.957L426.322 164.672H424.202C421.24 164.672 418.973 165.632 418.973 168.603C418.973 171.184 421.056 172.836 424.603 172.836C426.652 172.836 428.772 172.145 430.197 170.764L432.246 172.145C430.344 174.066 427.346 174.877 424.53 174.877C419.339 174.877 415.792 172.175 415.792 168.602C415.792 165.392 418.571 163.711 421.532 163.53C418.863 163.11 416.596 161.219 416.596 158.728C416.597 155.907 419.595 153.536 424.312 153.536ZM402.388 153.536C405.789 153.536 408.056 154.526 410.066 156.507L407.945 157.828C406.337 156.296 404.984 155.636 402.498 155.636C399.682 155.636 398 157.077 398 159.389C398 162.779 400.048 165.031 409.554 172.505V174.545H394.6L394.234 172.415H406.081C397.781 166.201 394.819 163.11 394.819 159.328C394.819 156.026 397.634 153.536 402.388 153.536ZM371.396 172.505H376.661V153.896H379.33L386.789 157.677L385.472 159.449L379.695 156.597V172.506H385.911V174.546H371.395V172.505H371.396ZM327.145 169.504V167.523H330.399V161.639H333.069L333.324 167.522H340.6L333.872 154.436L336.395 153.534L343.818 167.702V169.503H333.361V174.545H330.399V169.503H327.145V169.504ZM314.691 153.536C317.251 153.536 319.7 154.256 321.821 155.937L320.176 157.468C318.493 156.177 316.994 155.547 314.837 155.547C312.168 155.547 310.047 156.777 310.047 159.058C310.047 161.55 312.423 162.691 314.837 162.691H316.336L316.701 164.672H314.581C311.62 164.672 309.353 165.632 309.353 168.603C309.353 171.184 311.436 172.836 314.983 172.836C317.031 172.836 319.151 172.145 320.577 170.764L322.625 172.145C320.724 174.066 317.726 174.877 314.91 174.877C309.718 174.877 306.171 172.175 306.171 168.602C306.171 165.392 308.95 163.711 311.912 163.53C309.242 163.11 306.975 161.219 306.975 158.728C306.976 155.907 309.974 153.536 314.691 153.536ZM292.767 153.536C296.168 153.536 298.434 154.526 300.445 156.507L298.324 157.828C296.716 156.296 295.363 155.636 292.877 155.636C290.061 155.636 288.38 157.077 288.38 159.389C288.38 162.779 290.427 165.031 299.934 172.505V174.545H284.979L284.614 172.415H296.461C288.16 166.201 285.199 163.11 285.199 159.328C285.198 156.026 288.013 153.536 292.767 153.536ZM261.775 172.505H267.04V153.896H269.708L277.167 157.677L275.851 159.449L270.074 156.597V172.506H276.29V174.546H261.774V172.505H261.775ZM217.524 169.504V167.523H220.779V161.639H223.447L223.703 167.522H230.979L224.251 154.436L226.774 153.534L234.197 167.702V169.503H223.739V174.545H220.778V169.503H217.524V169.504ZM205.07 153.536C207.629 153.536 210.08 154.256 212.2 155.937L210.555 157.468C208.872 156.177 207.374 155.547 205.216 155.547C202.547 155.547 200.426 156.777 200.426 159.058C200.426 161.55 202.802 162.691 205.216 162.691H206.715L207.081 164.672H204.96C201.998 164.672 199.73 165.632 199.73 168.603C199.73 171.184 201.815 172.836 205.361 172.836C207.409 172.836 209.53 172.145 210.956 170.764L213.003 172.145C211.102 174.066 208.104 174.877 205.288 174.877C200.096 174.877 196.55 172.175 196.55 168.602C196.55 165.392 199.329 163.711 202.29 163.53C199.621 163.11 197.354 161.219 197.354 158.728C197.355 155.907 200.354 153.536 205.07 153.536ZM183.146 153.536C186.546 153.536 188.813 154.526 190.825 156.507L188.704 157.828C187.095 156.296 185.742 155.636 183.256 155.636C180.44 155.636 178.758 157.077 178.758 159.389C178.758 162.779 180.806 165.031 190.313 172.505V174.545H175.358L174.992 172.415H186.839C178.539 166.201 175.577 163.11 175.577 159.328C175.577 156.026 178.393 153.536 183.146 153.536ZM152.154 172.505H157.419V153.896H160.089L167.548 157.677L166.231 159.449L160.454 156.597V172.506H166.67V174.546H152.154V172.505ZM107.904 169.504V167.523H111.158V161.639H113.827L114.083 167.522H121.359L114.631 154.436L117.154 153.534L124.577 167.702V169.503H114.12V174.545H111.158V169.503H107.904V169.504ZM95.4496 153.536C98.0091 153.536 100.459 154.256 102.579 155.937L100.934 157.468C99.2522 156.177 97.7528 155.547 95.5958 155.547C92.9263 155.547 90.8056 156.777 90.8056 159.058C90.8056 161.55 93.1826 162.691 95.5958 162.691H97.0946L97.4603 164.672H95.3396C92.3782 164.672 90.1112 165.632 90.1112 168.603C90.1112 171.184 92.195 172.836 95.7421 172.836C97.7897 172.836 99.9104 172.145 101.336 170.764L103.384 172.145C101.482 174.066 98.4841 174.877 95.6689 174.877C90.4768 174.877 86.9298 172.175 86.9298 168.602C86.9298 165.392 89.7087 163.711 92.6707 163.53C90.0012 163.11 87.7342 161.219 87.7342 158.728C87.7342 155.907 90.7325 153.536 95.4496 153.536ZM73.5251 153.536C76.9259 153.536 79.1928 154.526 81.2035 156.507L79.0828 157.828C77.474 156.296 76.1215 155.636 73.6351 155.636C70.8193 155.636 69.1374 157.077 69.1374 159.389C69.1374 162.779 71.185 165.031 80.6917 172.505V174.545H65.7372L65.3716 172.415H77.2184C68.918 166.201 65.9566 163.11 65.9566 159.328C65.9566 156.026 68.7718 153.536 73.5251 153.536ZM42.5327 172.505H47.7979V153.896H50.4674L57.9265 157.677L56.6102 159.449L50.8331 156.597V172.506H57.049V174.546H42.5327V172.505Z" fill="white" fill-opacity="0.196"/>
<path d="M451.099 224.34H447.001V212.729L451.46 213.463V211.585L447.026 210.853H444.518V224.341H440.419V226.074H451.1V224.34H451.099ZM434.904 224.34H430.805V212.729L435.265 213.463V211.585L430.83 210.853H428.322V224.341H424.224V226.074H434.905V224.34H434.904ZM408.885 224.34H400.128V226.074H411.902V224.341C410.951 223.532 409.655 222.448 408.015 221.089C406.368 219.723 405.332 218.842 404.91 218.447C404.106 217.707 403.547 217.082 403.233 216.572C402.91 216.055 402.748 215.549 402.748 215.053C402.748 214.244 403.096 213.585 403.792 213.074C404.479 212.564 405.378 212.31 406.488 212.31C407.274 212.31 408.106 212.423 408.984 212.647C409.852 212.872 410.784 213.211 411.778 213.667V211.586C410.768 211.253 409.824 211.002 408.946 210.833C408.069 210.663 407.266 210.578 406.537 210.578C404.616 210.578 403.084 210.972 401.942 211.76C400.799 212.549 400.227 213.602 400.227 214.922C400.227 215.546 400.373 216.141 400.663 216.706C400.944 217.263 401.462 217.922 402.215 218.684C402.422 218.88 403.08 219.451 404.19 220.396C405.299 221.334 406.864 222.649 408.885 224.342V224.34ZM387.249 217.867C386.048 218.076 385.113 218.516 384.442 219.182C383.763 219.848 383.423 220.671 383.423 221.65C383.423 223.151 384.052 224.314 385.311 225.137C386.569 225.959 388.358 226.37 390.676 226.37C391.455 226.37 392.258 226.305 393.086 226.175C393.905 226.054 394.754 225.866 395.632 225.616V223.627C394.936 223.96 394.175 224.211 393.346 224.381C392.518 224.55 391.653 224.636 390.751 224.636C389.177 224.636 387.981 224.381 387.16 223.871C386.332 223.361 385.918 222.62 385.918 221.649C385.918 220.751 386.304 220.051 387.074 219.549C387.836 219.039 388.9 218.784 390.267 218.784H392.427V217.091H390.166C388.933 217.091 387.988 216.89 387.335 216.49C386.681 216.082 386.353 215.497 386.353 214.737C386.353 213.955 386.692 213.356 387.371 212.942C388.043 212.52 389.007 212.31 390.266 212.31C390.953 212.31 391.69 212.371 392.477 212.494C393.263 212.616 394.129 212.806 395.073 213.064V211.229C394.121 211.011 393.231 210.848 392.402 210.74C391.566 210.631 390.78 210.577 390.043 210.577C388.138 210.577 386.632 210.934 385.522 211.646C384.413 212.354 383.858 213.312 383.858 214.523C383.858 215.365 384.152 216.078 384.74 216.664C385.328 217.241 386.164 217.643 387.249 217.867ZM370.532 210.853H360.683V212.585H368.234V216.317C367.87 216.215 367.505 216.139 367.141 216.092C366.777 216.038 366.412 216.011 366.047 216.011C363.977 216.011 362.338 216.477 361.13 217.408C359.921 218.339 359.316 219.6 359.316 221.19C359.316 222.829 359.937 224.102 361.18 225.013C362.421 225.917 364.173 226.369 366.433 226.369C367.212 226.369 368.006 226.315 368.818 226.207C369.621 226.098 370.453 225.935 371.314 225.717V223.647C370.569 223.981 369.799 224.228 369.004 224.392C368.209 224.555 367.369 224.636 366.483 224.636C365.05 224.636 363.916 224.326 363.079 223.709C362.243 223.09 361.825 222.251 361.825 221.191C361.825 220.131 362.243 219.29 363.079 218.672C363.915 218.054 365.05 217.745 366.483 217.745C367.154 217.745 367.824 217.806 368.495 217.929C369.157 218.051 369.835 218.241 370.532 218.499V210.853ZM348.996 218.845C350.188 218.845 351.128 219.106 351.815 219.63C352.494 220.154 352.834 220.874 352.834 221.792C352.834 222.71 352.494 223.43 351.815 223.953C351.128 224.477 350.188 224.739 348.996 224.739C347.803 224.739 346.863 224.477 346.175 223.954C345.489 223.423 345.146 222.703 345.146 221.792C345.146 220.874 345.489 220.154 346.175 219.63C346.855 219.106 347.795 218.845 348.996 218.845ZM351.504 217.969C352.58 217.751 353.422 217.34 354.026 216.735C354.622 216.13 354.919 215.393 354.919 214.523C354.919 213.306 354.394 212.344 353.343 211.638C352.283 210.931 350.834 210.578 348.996 210.578C347.149 210.578 345.7 210.931 344.649 211.637C343.598 212.344 343.072 213.306 343.072 214.523C343.072 215.393 343.374 216.13 343.978 216.735C344.575 217.34 345.407 217.751 346.475 217.969C345.266 218.199 344.326 218.652 343.655 219.324C342.976 219.998 342.637 220.82 342.637 221.793C342.637 223.267 343.187 224.398 344.289 225.188C345.382 225.976 346.951 226.371 348.996 226.371C351.04 226.371 352.614 225.976 353.715 225.188C354.808 224.398 355.355 223.267 355.355 221.793C355.355 220.82 355.015 219.998 354.335 219.324C353.657 218.652 352.714 218.199 351.504 217.969ZM352.424 214.716C352.424 215.505 352.126 216.119 351.529 216.562C350.925 217.003 350.081 217.225 348.996 217.225C347.92 217.225 347.079 217.003 346.475 216.562C345.862 216.119 345.556 215.505 345.556 214.716C345.556 213.927 345.862 213.313 346.475 212.871C347.079 212.428 347.92 212.208 348.996 212.208C350.081 212.208 350.926 212.429 351.529 212.871C352.126 213.313 352.424 213.927 352.424 214.716Z" fill="white" fill-opacity="0.196"/>
<path d="M290.071 223.834H285.973V212.221L290.432 212.955V211.079L285.998 210.345H283.488V223.834H279.391V225.567H290.072V223.834H290.071ZM266.709 217.359C265.509 217.57 264.574 218.009 263.902 218.675C263.223 219.34 262.884 220.163 262.884 221.142C262.884 222.644 263.513 223.807 264.772 224.629C266.03 225.452 267.818 225.863 270.138 225.863C270.916 225.863 271.719 225.798 272.548 225.669C273.367 225.547 274.215 225.36 275.093 225.108V223.12C274.397 223.454 273.636 223.705 272.807 223.874C271.979 224.044 271.114 224.129 270.211 224.129C268.639 224.129 267.443 223.874 266.622 223.364C265.794 222.854 265.38 222.114 265.38 221.142C265.38 220.244 265.765 219.545 266.535 219.042C267.296 218.532 268.361 218.277 269.727 218.277H271.888V216.585H269.627C268.394 216.585 267.45 216.384 266.795 215.983C266.142 215.576 265.814 214.991 265.814 214.23C265.814 213.449 266.154 212.85 266.833 212.435C267.504 212.014 268.468 211.804 269.727 211.804C270.414 211.804 271.151 211.864 271.938 211.987C272.724 212.109 273.591 212.3 274.534 212.558V210.723C273.582 210.505 272.692 210.342 271.864 210.233C271.028 210.124 270.241 210.07 269.505 210.07C267.6 210.07 266.093 210.427 264.984 211.141C263.875 211.847 263.32 212.806 263.32 214.016C263.32 214.859 263.613 215.572 264.201 216.157C264.788 216.734 265.625 217.135 266.709 217.359ZM255.953 223.834H247.197V225.567H258.972V223.834C258.019 223.025 256.723 221.941 255.084 220.582C253.437 219.215 252.402 218.335 251.979 217.941C251.176 217.201 250.617 216.575 250.303 216.065C249.98 215.549 249.818 215.042 249.818 214.546C249.818 213.737 250.166 213.078 250.861 212.568C251.548 212.058 252.447 211.803 253.557 211.803C254.343 211.803 255.175 211.915 256.053 212.14C256.922 212.364 257.853 212.703 258.848 213.159V211.08C257.837 210.747 256.894 210.495 256.016 210.325C255.139 210.155 254.335 210.071 253.607 210.071C251.686 210.071 250.154 210.465 249.011 211.253C247.868 212.042 247.297 213.096 247.297 214.414C247.297 215.039 247.442 215.635 247.732 216.198C248.013 216.756 248.531 217.416 249.285 218.177C249.491 218.374 250.149 218.945 251.259 219.889C252.369 220.827 253.933 222.142 255.953 223.836V223.834ZM241.485 223.834H237.386V212.221L241.845 212.955V211.079L237.41 210.345H234.903V223.834H230.804V225.567H241.485V223.834H241.485ZM210.025 217.359C208.824 217.57 207.889 218.009 207.218 218.675C206.539 219.34 206.199 220.163 206.199 221.142C206.199 222.644 206.828 223.807 208.087 224.629C209.346 225.452 211.135 225.863 213.453 225.863C214.231 225.863 215.034 225.798 215.862 225.669C216.682 225.547 217.53 225.36 218.409 225.108V223.12C217.713 223.454 216.951 223.705 216.123 223.874C215.295 224.044 214.43 224.129 213.527 224.129C211.954 224.129 210.758 223.874 209.938 223.364C209.109 222.854 208.696 222.114 208.696 221.142C208.696 220.244 209.081 219.545 209.85 219.042C210.612 218.532 211.676 218.277 213.043 218.277H215.203V216.585H212.943C211.709 216.585 210.766 216.384 210.111 215.983C209.458 215.576 209.13 214.991 209.13 214.23C209.13 213.449 209.47 212.85 210.149 212.435C210.82 212.014 211.784 211.804 213.043 211.804C213.73 211.804 214.467 211.864 215.254 211.987C216.041 212.109 216.906 212.3 217.85 212.558V210.723C216.898 210.505 216.007 210.342 215.179 210.233C214.343 210.124 213.557 210.07 212.82 210.07C210.915 210.07 209.408 210.427 208.299 211.141C207.189 211.847 206.635 212.806 206.635 214.016C206.635 214.859 206.929 215.572 207.517 216.157C208.104 216.734 208.94 217.135 210.025 217.359ZM194.538 212.139L200.871 220.265H194.538V212.139ZM195.196 210.345H192.041V220.265H189.396V221.978H192.041V225.567H194.537V221.978H202.909V219.99L195.196 210.345ZM185.21 210.345H175.361V212.078H182.912V215.809C182.548 215.708 182.183 215.633 181.819 215.585C181.455 215.531 181.09 215.504 180.727 215.504C178.657 215.504 177.017 215.97 175.808 216.9C174.599 217.832 173.995 219.092 173.995 220.683C173.995 222.321 174.616 223.596 175.858 224.506C177.1 225.41 178.851 225.862 181.111 225.862C181.89 225.862 182.685 225.808 183.496 225.699C184.299 225.591 185.131 225.428 185.992 225.21V223.14C185.247 223.473 184.477 223.721 183.682 223.884C182.887 224.048 182.047 224.129 181.161 224.129C179.728 224.129 178.594 223.82 177.758 223.201C176.922 222.583 176.504 221.743 176.504 220.683C176.504 219.623 176.922 218.784 177.758 218.165C178.594 217.546 179.728 217.238 181.161 217.238C181.832 217.238 182.502 217.299 183.173 217.421C183.836 217.543 184.514 217.735 185.21 217.992V210.345ZM169.015 210.345H159.165V212.078H166.717V215.809C166.352 215.708 165.988 215.633 165.624 215.585C165.26 215.531 164.895 215.504 164.53 215.504C162.46 215.504 160.821 215.97 159.613 216.9C158.404 217.832 157.799 219.092 157.799 220.683C157.799 222.321 158.421 223.596 159.663 224.506C160.904 225.41 162.656 225.862 164.916 225.862C165.694 225.862 166.489 225.808 167.3 225.699C168.103 225.591 168.936 225.428 169.797 225.21V223.14C169.052 223.473 168.281 223.721 167.487 223.884C166.692 224.048 165.852 224.129 164.966 224.129C163.533 224.129 162.399 223.82 161.563 223.201C160.726 222.583 160.308 221.743 160.308 220.683C160.308 219.623 160.726 218.784 161.563 218.165C162.399 217.546 163.533 217.238 164.966 217.238C165.637 217.238 166.307 217.299 166.978 217.421C167.64 217.543 168.319 217.735 169.015 217.992V210.345Z" fill="white" fill-opacity="0.196"/>
<path d="M496 34.6326H0V87.8766H496V34.6326Z" fill="#333333"/>
<path d="M19.7129 99.8847H377.087V141.645H19.7129V99.8847Z" fill="white"/>
<path d="M326.756 127.864H322.178V111.682H319.856L313.37 114.971L314.515 116.51L319.538 114.031V127.864H314.133V129.639H326.756V127.864ZM337.935 111.369C334.979 111.369 333.007 112.23 331.258 113.953L333.102 115.101C334.501 113.77 335.677 113.196 337.839 113.196C340.288 113.196 341.75 114.449 341.75 116.458C341.75 119.408 339.969 121.365 331.702 127.864V129.639H344.706L345.024 127.786H334.723C341.941 122.383 344.516 119.695 344.516 116.406C344.516 113.535 342.068 111.369 337.935 111.369ZM356.999 111.369C354.773 111.369 352.642 111.995 350.799 113.457L352.23 114.788C353.692 113.666 354.996 113.117 356.872 113.117C359.193 113.117 361.037 114.188 361.037 116.171C361.037 118.337 358.97 119.329 356.872 119.329H355.568L355.25 121.052H357.094C359.67 121.052 361.64 121.887 361.64 124.471C361.64 126.716 359.828 128.151 356.744 128.151C354.964 128.151 353.119 127.551 351.88 126.35L350.099 127.551C351.753 129.221 354.359 129.926 356.808 129.926C361.323 129.926 364.407 127.577 364.407 124.471C364.407 121.678 361.99 120.217 359.415 120.06C361.736 119.695 363.707 118.05 363.707 115.884C363.708 113.431 361.101 111.369 356.999 111.369Z" fill="black"/>
<path d="M35.6103 185.273H88.3898C97.1697 185.273 104.287 191.116 104.287 198.323V221.813C104.287 229.021 97.1697 234.863 88.3898 234.863H35.6103C26.8305 234.863 19.7129 229.021 19.7129 221.813V198.323C19.7129 191.116 26.8305 185.273 35.6103 185.273Z" fill="#A5A5A5"/>
</svg>
