<svg width="36" height="36" viewBox="0 0 36 36" fill="none" xmlns="http://www.w3.org/2000/svg">
<path d="M34.663 19.8969H29.7488V15.174H34.663C35.4015 15.174 36 14.576 36 13.8375C36 13.0988 35.4015 12.5005 34.663 12.5005H29.7488V5.94718C29.7488 4.99057 29.5598 4.28843 29.1871 3.86072C28.833 3.45383 28.3673 3.2645 27.7225 3.2645C27.1072 3.2645 26.6591 3.45253 26.3118 3.85688C25.9435 4.28502 25.7565 4.98846 25.7565 5.94762V12.5013H16.5126L12.5822 6.55371C12.2458 6.02292 11.9295 5.52571 11.6224 5.04846C11.3458 4.61864 11.0761 4.2687 10.8214 4.0074C10.5958 3.77606 10.3388 3.59703 10.0382 3.45942C9.75455 3.32993 9.39394 3.26493 8.96732 3.26493C8.42318 3.26493 7.92924 3.41401 7.45626 3.72028C6.98822 4.02322 6.66468 4.39775 6.46708 4.86536C6.29363 5.30975 6.20186 5.99071 6.20186 6.8697V12.5009H1.33645C0.598184 12.5009 0 13.0993 0 13.8378C0 14.5764 0.598184 15.1744 1.33652 15.1744H6.20193V19.8978H1.33652C0.598184 19.8978 0 20.496 0 21.2348C0 21.9731 0.598184 22.5708 1.33652 22.5708H6.20193V30.0531C6.20193 30.9814 6.397 31.6764 6.78336 32.1181C7.15079 32.5392 7.61665 32.7347 8.2493 32.7347C8.85967 32.7347 9.32191 32.5383 9.70522 32.1164C10.0977 31.6842 10.2963 30.9896 10.2963 30.0531V22.5708H18.661L23.1876 29.5119C23.5023 29.9707 23.8273 30.4338 24.1514 30.888C24.4439 31.2957 24.7629 31.655 25.0995 31.9551C25.4027 32.2266 25.7276 32.4255 26.0655 32.5469C26.4132 32.6721 26.8197 32.7355 27.2708 32.7355C28.4949 32.7355 29.7487 32.3608 29.7487 29.5815V22.5708H34.6629C35.4013 22.5708 35.9999 21.9722 35.9999 21.2339C36 20.4955 35.4015 19.8969 34.663 19.8969ZM25.7564 15.1739V19.8969H21.4009L18.2801 15.1739H25.7564ZM10.2964 9.7471L12.0925 12.5005H10.2964V9.7471ZM10.2964 19.8969V15.174H13.8366L16.9172 19.8969H10.2964ZM25.7564 26.4891L23.1679 22.5708H25.7564V26.4891Z" fill="#A6A4B4"/>
</svg>
